<svg width="120" height="33" viewBox="0 0 120 33" fill="none" xmlns="http://www.w3.org/2000/svg">
<path fill-rule="evenodd" clip-rule="evenodd" d="M16.9207 4.715C17.9665 3.45415 18.6822 1.73985 18.4837 0C16.9699 0.0642023 15.0762 1.00875 13.9858 2.2417C13.0209 3.32743 12.159 5.10795 12.382 6.78225C14.0828 6.90427 15.8289 5.95501 16.9207 4.715ZM24.8439 21.585C24.8198 21.6885 24.2169 23.7111 22.7147 25.7625C21.4606 27.5699 20.1461 29.3363 18.0584 29.3682C16.031 29.4133 15.3488 28.2193 13.0227 28.2193C10.6757 28.2193 9.94889 29.3363 8.00422 29.4133C6.01594 29.4842 4.49663 27.4855 3.19681 25.6936C0.598575 22.0374 -1.42426 15.3903 1.28809 10.8672C2.60186 8.64839 4.99806 7.22014 7.56001 7.18216C9.55039 7.14317 11.3974 8.47663 12.6208 8.47663C13.8197 8.47663 16.1039 6.88098 18.4582 7.11964C19.4433 7.14754 22.2464 7.49477 24.0553 10.0346C23.9091 10.119 20.7159 11.9267 20.7505 15.6434C20.7913 20.0966 24.7958 21.5695 24.8439 21.585Z" fill="white"/>
<path fill-rule="evenodd" clip-rule="evenodd" d="M93.6055 6.81125H94.2106C95.1071 6.81125 95.736 7.01288 95.736 7.61577C95.736 8.26361 94.9438 8.41962 94.2932 8.41962C94.0138 8.41962 93.8387 8.41962 93.6055 8.3968V6.81125ZM93.6182 4.6456C93.8265 4.62346 94.0136 4.60031 94.3045 4.60031C95.1418 4.60031 95.5375 4.83516 95.5375 5.2703C95.5375 5.79501 94.932 5.9849 94.2104 5.9849H93.6182V4.6456ZM92.2106 9.22241C92.5494 9.23349 93.3046 9.28918 94.0262 9.28918C95.1551 9.28918 97.2031 9.13317 97.2031 7.64759C97.2031 6.88803 96.6329 6.44182 95.783 6.31869V6.29689C96.3882 6.17376 96.9482 5.78324 96.9482 5.09044C96.9482 3.83971 95.2369 3.71759 94.2814 3.71759C93.5014 3.71759 92.6302 3.78469 92.2096 3.85145H92.2106V9.22241ZM84.4856 4.65607C85.4649 4.65607 85.861 5.63907 85.861 6.48888C85.861 7.59468 85.2914 8.35391 84.4769 8.35391C83.6147 8.35391 83.0676 7.56079 83.0676 6.51035C83.0676 5.60586 83.4763 4.65607 84.4856 4.65607ZM84.4291 9.34667C85.8719 9.34667 87.3382 8.45257 87.3382 6.45335C87.3382 4.80069 86.2093 3.66135 84.5224 3.66135C82.8118 3.66135 81.5902 4.7554 81.5902 6.54292C81.5902 8.29589 82.8341 9.34667 84.4291 9.34667ZM76.1595 9.22386H74.7281V3.78546H76.1595V5.86252H78.348V3.78546H79.7783V9.22386H78.348V6.93477H76.1595V9.22386ZM67.5619 3.78546H72.5648V9.22386H71.122V4.8463H68.9918V9.22386H67.5619V3.78546ZM62.5104 8.77698L60.4268 3.78546H62.0122L63.0244 6.70059C63.1397 7.03541 63.2688 7.44841 63.3488 7.74969H63.3841C63.4659 7.44841 63.5701 7.03541 63.6883 6.68885L64.5714 3.78546H66.0961L64.6742 7.49337C63.8946 9.52647 63.3708 10.43 62.708 10.9889C62.1371 11.4589 61.555 11.6378 61.206 11.6824L60.8799 10.5313C61.1246 10.4763 61.4151 10.3531 61.7063 10.1518C61.986 9.98309 62.3 9.66 62.4979 9.29096C62.5552 9.19031 62.579 9.11214 62.579 9.04537C62.579 8.99035 62.5674 8.91218 62.5104 8.77698ZM59.5604 4.8463H57.861V9.22386H56.429V4.8463H54.7295V3.78546H59.5604V4.8463ZM49.1234 6.55467C49.1234 4.92415 50.2862 3.66135 52.2773 3.66135C52.8013 3.66135 53.3355 3.7734 53.6617 3.9076L53.4069 4.94563C53.174 4.83424 52.8356 4.73326 52.3241 4.73326C51.2298 4.73326 50.5778 5.50423 50.5893 6.49696C50.5893 7.6145 51.3466 8.25094 52.3241 8.25094C52.8129 8.25094 53.173 8.15062 53.4523 8.03756L53.6502 9.05646C53.3481 9.18966 52.7541 9.33627 52.0448 9.33627C50.2754 9.33627 49.1234 8.24188 49.1234 6.55467ZM44.8096 4.65607C45.7871 4.65607 46.1829 5.63907 46.1829 6.48888C46.1829 7.59468 45.6119 8.35391 44.7981 8.35391C43.937 8.35391 43.3895 7.56079 43.3895 6.51035C43.3895 5.60586 43.7968 4.65607 44.8096 4.65607ZM44.7504 9.34667C46.1933 9.34667 47.6595 8.45257 47.6595 6.45335C47.6595 4.80069 46.531 3.66135 44.8424 3.66135C43.1324 3.66135 41.9105 4.7554 41.9105 6.54292C41.9105 8.29589 43.1551 9.34667 44.7504 9.34667ZM35.9673 6.75587C36.2246 5.96209 36.3404 5.03511 36.3404 4.00748V2.82452H38.3772V8.09651H35.3859C35.5943 7.7268 35.8163 7.24737 35.9673 6.75587ZM34.4556 11.0873L34.5367 9.22266H39.2963L39.3784 11.0873H40.472L40.5535 8.16182L39.8088 8.12894V1.6958H35.0128V3.66147C35.0128 4.74446 34.9205 5.66036 34.6762 6.46522C34.501 7.05603 34.2213 7.60423 33.9189 8.12894L33.2906 8.16182L33.3616 11.0873H34.4556ZM113.585 20.8433C114.06 20.232 114.683 19.9274 115.449 19.9274C116.285 19.9274 116.908 20.2394 117.313 20.8651C117.631 21.3505 117.784 21.9246 117.768 22.5905H112.892C112.962 21.9128 113.194 21.3287 113.585 20.8433ZM120 23.1738C120 21.913 119.689 20.8508 119.07 19.9926C118.29 18.911 117.14 18.3708 115.622 18.3708C114.076 18.3708 112.847 18.911 111.938 19.9926C111.069 21.0051 110.635 22.275 110.635 23.7992C110.635 25.3518 111.103 26.5908 112.034 27.5128C112.967 28.4347 114.249 28.8957 115.883 28.8957C117.241 28.8957 118.419 28.6877 119.416 28.2713L119.049 26.7119C118.195 27.0313 117.248 27.1893 116.207 27.1893C115.268 27.1893 114.502 26.9538 113.91 26.4838C113.259 25.9567 112.918 25.1925 112.892 24.1934H119.914C119.972 23.9162 120 23.5771 120 23.1738ZM109.529 20.5737C109.53 20.5741 109.53 20.5741 109.531 20.5741H109.529V20.5737ZM109.529 18.4309V20.5734C109.298 20.5321 109.05 20.5116 108.792 20.5116C107.969 20.5116 107.332 20.8092 106.883 21.4067C106.494 21.9335 106.3 22.5998 106.3 23.4029V28.7088H103.958V21.7812C103.958 20.6166 103.936 19.5541 103.891 18.5983H105.93L106.016 20.5331H106.081C106.328 19.8685 106.718 19.332 107.251 18.9311C107.773 18.5698 108.337 18.39 108.943 18.39C109.16 18.39 109.356 18.404 109.529 18.4309ZM98.8421 26.0286C98.3352 26.8439 97.6335 27.2535 96.7382 27.2535C95.825 27.2535 95.1181 26.852 94.6122 26.0498C94.1926 25.3868 93.9836 24.5904 93.9836 23.6631C93.9836 22.7092 94.1926 21.9007 94.6122 21.2361C95.102 20.4329 95.8208 20.0316 96.7588 20.0316C97.6692 20.0316 98.3716 20.4329 98.8628 21.2361C99.2809 21.9007 99.49 22.6948 99.49 23.6211C99.49 24.5494 99.2746 25.3499 98.8421 26.0286ZM96.8459 18.3905C95.2415 18.3905 93.9651 18.8894 93.0169 19.8885C92.0716 20.8866 91.5978 22.1699 91.5978 23.737C91.5978 25.2343 92.0565 26.4767 92.9746 27.4613C93.8923 28.4447 95.1237 28.9369 96.6718 28.9369C98.2758 28.9369 99.5627 28.4242 100.53 27.3973C101.454 26.3992 101.918 25.1229 101.918 23.5693C101.918 22.0565 101.471 20.8242 100.573 19.8681C99.6337 18.883 98.3918 18.3905 96.8459 18.3905ZM87.7181 18.5947H90.2982V20.2823H87.7181V25.1922C87.7181 26.4403 88.1733 27.0636 89.084 27.0636C89.5029 27.0636 89.85 27.0301 90.1245 26.9603L90.1892 28.666C89.7277 28.8317 89.1211 28.9153 88.368 28.9153C87.444 28.9153 86.721 28.6442 86.1997 28.1033C85.6809 27.5622 85.4194 26.6543 85.4194 25.3774V20.2802H83.8815V18.5947H85.4194V16.7431L87.7181 16.0771V18.5947ZM81.6472 22.3429C82.2411 22.9937 82.5383 23.806 82.5383 24.7752C82.5383 25.9692 82.1037 26.9392 81.2392 27.6887C80.2882 28.5066 78.9604 28.9159 77.2585 28.9159C75.687 28.9159 74.4259 28.6247 73.475 28.0423L74.0162 26.1699C75.0423 26.753 76.1705 27.0442 77.3987 27.0442C78.2807 27.0442 78.967 26.8526 79.4568 26.4721C79.9484 26.0903 80.1959 25.5807 80.1959 24.944C80.1959 24.3739 79.9914 23.8965 79.5879 23.5077C79.1824 23.1195 78.5122 22.7582 77.5724 22.4261C75.0133 21.5102 73.733 20.1715 73.733 18.4095C73.733 17.2594 74.1854 16.3167 75.0884 15.5809C75.9911 14.8455 77.1879 14.4781 78.6765 14.4781C80.0061 14.4781 81.114 14.7002 81.994 15.1438L81.4066 16.9752C80.5784 16.5455 79.6435 16.3298 78.5992 16.3298C77.7735 16.3298 77.1256 16.525 76.6627 16.9128C76.2722 17.2594 76.0747 17.6818 76.0747 18.183C76.0747 18.7369 76.3002 19.1959 76.7484 19.5559C77.1375 19.8884 77.8469 20.2497 78.8716 20.6379C80.1302 21.1243 81.0553 21.6913 81.6472 22.3429ZM65.8638 26.192C65.3737 26.8418 64.6874 27.1693 63.8053 27.1693C63.0519 27.1693 62.4408 26.9146 61.9716 26.4094C61.5038 25.9021 61.2682 25.2821 61.2682 24.547V22.8605C61.2682 22.6817 61.3056 22.4542 61.3776 22.1764C61.521 21.5796 61.8276 21.0975 62.2971 20.7294C62.768 20.3634 63.2928 20.1779 63.8703 20.1779C64.7227 20.1779 65.4006 20.5113 65.9068 21.1756C66.3701 21.8151 66.6015 22.6273 66.6015 23.6107C66.6015 24.6789 66.355 25.5391 65.8638 26.192ZM64.6304 18.39C63.039 18.39 61.8541 18.9928 61.0745 20.2006H61.0304L60.8997 18.5976H58.8408C58.8985 19.7336 58.9275 20.8408 58.9275 21.9214V32.8082H61.2685V27.5027C61.8786 28.4599 62.8827 28.9373 64.2776 28.9373C65.5705 28.9373 66.6536 28.4938 67.5266 27.6054C68.5002 26.6076 68.9873 25.2482 68.9873 23.5288C68.9873 21.9892 68.5702 20.7482 67.7419 19.8037C66.9102 18.861 65.8722 18.39 64.6304 18.39ZM53.7445 26.192C53.2537 26.8418 52.5677 27.1693 51.6857 27.1693C50.9347 27.1693 50.3243 26.916 49.854 26.4094C49.3845 25.9021 49.1492 25.2821 49.1492 24.547V22.8605C49.1492 22.6817 49.1856 22.4542 49.258 22.1764C49.4017 21.5796 49.7093 21.0975 50.1792 20.7294C50.6484 20.3634 51.1731 20.1779 51.7507 20.1779C52.6027 20.1779 53.2823 20.5113 53.7886 21.1756C54.2518 21.8151 54.4829 22.6273 54.4829 23.6107C54.4829 24.6789 54.2368 25.5391 53.7445 26.192ZM52.5117 18.39C50.922 18.39 49.7368 18.9928 48.9565 20.2006H48.9125L48.7817 18.5976H46.7228C46.7802 19.7336 46.8095 20.8408 46.8095 21.9214V32.8082H49.1505V27.5027C49.7599 28.4599 50.7637 28.9373 52.1597 28.9373C53.4515 28.9373 54.536 28.4938 55.4075 27.6054C56.3819 26.6076 56.8679 25.2482 56.8679 23.5288C56.8679 21.9892 56.4518 20.7482 55.6222 19.8037C54.7926 18.861 53.7549 18.39 52.5117 18.39ZM36.5963 22.8621L37.8105 19.2008C38.1276 18.0359 38.3594 17.1549 38.5045 16.5591H38.5482C38.9086 17.9454 39.1537 18.8264 39.2848 19.2008L40.5204 22.8621H36.5963ZM37.1598 14.6854L32.4551 28.7084H34.8828L36.1844 24.5892H40.9318L42.2981 28.7084H44.7918L40.0654 14.6854H37.1598Z" fill="white"/>
</svg>
