<svg width="120" height="30" viewBox="0 0 120 30" fill="none" xmlns="http://www.w3.org/2000/svg">
<path fill-rule="evenodd" clip-rule="evenodd" d="M82.9685 18.7373C82.7454 18.1657 82.0761 17.7675 81.2866 17.7675C80.274 17.7675 78.8671 18.6681 78.9187 20.4346L82.9685 18.7373ZM85.3026 19.4307L79.2445 21.9594C79.708 22.8768 80.4289 23.3445 81.4412 23.3445C82.4538 23.3445 83.1575 22.8425 83.6723 22.0804L85.217 23.1194C84.7189 23.864 83.5178 25.1457 81.4412 25.1457C78.8672 25.1457 76.9449 23.1369 76.9449 20.5736C76.9449 17.8548 78.8845 16.0019 81.2184 16.0019C83.5694 16.0019 84.7189 17.8894 85.0968 18.9109L85.3026 19.4307ZM73.9937 24.8684H75.9843V11.4301H73.9937V24.8684ZM70.8701 20.5905C70.8701 18.9799 69.8059 17.8024 68.4503 17.8024C67.0774 17.8024 65.9276 18.9799 65.9276 20.5905C65.9276 22.1836 67.0774 23.344 68.4503 23.344C69.8059 23.344 70.8701 22.1836 70.8701 20.5905ZM70.733 16.2788H72.6207V24.4874C72.6207 27.8645 70.6474 29.25 68.3131 29.25C66.1164 29.25 64.7951 27.7607 64.2976 26.5486L66.0308 25.8211C66.3395 26.5657 67.0951 27.4492 68.3131 27.4492C69.8063 27.4492 70.733 26.5137 70.733 24.7646V24.1063H70.6644C70.2182 24.6604 69.3601 25.1457 68.2789 25.1457C66.0138 25.1457 63.9373 23.154 63.9373 20.5911C63.9373 18.0107 66.0138 16.0019 68.2789 16.0019C69.3601 16.0019 70.2182 16.4864 70.6644 17.0234H70.733V16.2788ZM108.882 21.2154C108.35 20.9556 107.939 20.7657 107.065 20.7657C106.089 20.7657 104.958 21.1633 104.958 22.2004C104.958 23.0133 105.866 23.3417 106.517 23.3417C107.665 23.3417 108.727 22.4602 108.882 21.2154ZM110.8 19.6938V24.8457H108.881V23.8086H108.813C108.35 24.5173 107.613 25.1223 106.277 25.1223C104.53 25.1223 102.97 23.9642 102.97 22.1662C102.97 20.1952 104.906 19.1406 106.808 19.1406C107.75 19.1406 108.521 19.4518 108.881 19.6592V19.521C108.864 18.4144 107.819 17.792 106.791 17.792C106.054 17.792 105.352 18.0339 104.975 18.7776L103.21 18.0339C103.827 16.6164 105.317 15.9769 106.757 15.9769C109.035 15.9769 110.8 17.308 110.8 19.6938ZM117.79 16.2701L115.511 22.0965H115.443L113.079 16.2701H110.937L114.483 24.4133L112.462 28.9428H114.535L120 16.2701H117.79ZM99.8867 24.8684H101.874V11.4301H99.8867V24.8684ZM51.1915 20.573C51.1915 18.9278 50.0074 17.8024 48.6348 17.8024C47.2616 17.8024 46.0775 18.9278 46.0775 20.573C46.0775 22.2008 47.2616 23.344 48.6348 23.344C50.0074 23.344 51.1915 22.2008 51.1915 20.573ZM53.1825 20.5736C53.1825 23.2058 51.1406 25.1457 48.6352 25.1457C46.1294 25.1457 44.0872 23.2058 44.0872 20.5736C44.0872 17.924 46.1294 16.0019 48.6352 16.0019C51.1406 16.0019 53.1825 17.924 53.1825 20.5736ZM96.8027 15.6032C96.8027 14.5416 95.9587 13.3 94.4728 13.3H91.6458V17.9063H94.4728C95.9587 17.9063 96.8027 16.6444 96.8027 15.6032ZM98.7905 15.6029C98.7905 18.1668 96.6253 19.7761 94.4219 19.7761H91.6465V24.8677H89.6594V11.429H94.4219C96.6253 11.429 98.7905 13.0387 98.7905 15.6029ZM61.1124 20.573C61.1124 18.9278 59.9283 17.8024 58.5554 17.8024C57.1825 17.8024 55.9984 18.9278 55.9984 20.573C55.9984 22.2008 57.1825 23.344 58.5554 23.344C59.9283 23.344 61.1124 22.2008 61.1124 20.573ZM63.1034 20.5736C63.1034 23.2058 61.0612 25.1457 58.5558 25.1457C56.05 25.1457 54.0081 23.2058 54.0081 20.5736C54.0081 17.924 56.05 16.0019 58.5558 16.0019C61.0612 16.0019 63.1034 17.924 63.1034 20.5736ZM36.8334 17.4048V19.3444H41.4326C41.2951 20.4355 40.9348 21.2322 40.3857 21.7863C39.7164 22.4617 38.6695 23.2061 36.8334 23.2061C34.0016 23.2061 31.7879 20.9029 31.7879 18.0453C31.7879 15.188 34.0016 12.8845 36.8334 12.8845C38.3608 12.8845 39.4763 13.491 40.2998 14.2703L41.6557 12.902C40.5059 11.7937 38.9785 10.9452 36.8334 10.9452C32.9547 10.9452 29.6941 14.1315 29.6941 18.0453C29.6941 21.9597 32.9547 25.146 36.8334 25.146C38.9269 25.146 40.5059 24.4531 41.7413 23.1543C43.0113 21.8727 43.4059 20.0716 43.4059 18.6169C43.4059 18.1666 43.3719 17.7512 43.303 17.4048H36.8334ZM67.3009 2.57597L67.2657 1.33277H67.3009L70.5506 6.59359H71.4081V0.143555H70.5858V3.91825L70.6214 5.16113H70.5858L67.4797 0.143555H66.4803V6.59359H67.3009V2.57597ZM59.5966 3.36905C59.5966 4.11974 59.8336 4.73705 60.3059 5.22036C60.7792 5.70367 61.3575 5.94532 62.0423 5.94532C62.7267 5.94532 63.3063 5.70367 63.7786 5.22036C64.2519 4.73705 64.4888 4.11974 64.4888 3.36905C64.4888 2.61837 64.2519 2.00137 63.7786 1.51775C63.3063 1.03444 62.7267 0.792786 62.0423 0.792786C61.3575 0.792786 60.7792 1.03444 60.3059 1.51775C59.8336 2.00137 59.5966 2.61837 59.5966 3.36905ZM59.6998 5.76064C59.0714 5.10935 58.7586 4.31199 58.7586 3.36919C58.7586 2.42639 59.0714 1.62902 59.6998 0.977731C60.3269 0.326122 61.1083 0 62.0425 0C62.9714 0 63.7506 0.327392 64.3821 0.982177C65.0124 1.63664 65.3274 2.4321 65.3274 3.36919C65.3274 4.31199 65.0133 5.10935 64.3862 5.76064C63.7578 6.41257 62.9765 6.73806 62.0425 6.73806C61.1083 6.73806 60.3269 6.41257 59.6998 5.76064ZM54.2866 6.59359V0.936155H56.0717V0.143555H51.6795V0.936155H53.4646V6.59359H54.2866ZM49.8232 6.59359H50.6438V0.143555H49.8232V6.59359ZM44.8602 6.59359V0.936155H46.645V0.143555H42.2531V0.936155H44.0382V6.59359H44.8602ZM41.397 5.80099H38.4866V3.75598H41.1109V2.98117H38.4866V0.936155H41.397V0.143555H37.6656V6.59359H41.397V5.80099ZM30.9932 5.76985C30.3472 5.12428 30.025 4.32374 30.025 3.36919C30.025 2.414 30.3472 1.6141 30.9932 0.968522C31.6383 0.322947 32.4228 0 33.3454 0C33.8029 0 34.2409 0.0901837 34.6573 0.270551C35.0732 0.450918 35.4071 0.690667 35.6567 0.99075L35.095 1.55821C34.6717 1.04823 34.0893 0.792918 33.3454 0.792918C32.6723 0.792918 32.0908 1.0314 31.5999 1.50899C31.1087 1.98658 30.8636 2.60644 30.8636 3.36919C30.8636 4.13194 31.1087 4.75179 31.5999 5.22938C32.0908 5.70698 32.6723 5.94546 33.3454 5.94546C34.0591 5.94546 34.6541 5.70539 35.1305 5.22526C35.4395 4.91247 35.6183 4.47743 35.6661 3.91886H33.3454V3.14404H36.4424C36.4723 3.31266 36.4871 3.47429 36.4871 3.63085C36.4871 4.53141 36.2227 5.24875 35.6932 5.78351C35.0921 6.41987 34.3086 6.73806 33.3454 6.73806C32.4228 6.73806 31.6383 6.41543 30.9932 5.76985Z" fill="white"/>
<path opacity="0.9" fill-rule="evenodd" clip-rule="evenodd" d="M0.42293 1.46335C0.157081 1.74837 0 2.19165 0 2.76554V23.264C0 23.8382 0.157081 24.2806 0.42293 24.5662L0.490405 24.6327L11.8097 13.1502V13.0146V12.8791L0.490405 1.396L0.42293 1.46335Z" fill="white"/>
<path opacity="0.6" fill-rule="evenodd" clip-rule="evenodd" d="M11.7112 12.8972V13.0343V13.1714L15.4841 17.0455L15.5702 16.996L20.0402 14.3889C21.3174 13.6437 21.3174 12.4254 20.0402 11.6808L15.5702 9.07376L15.4849 9.02417L11.7112 12.8972Z" fill="white"/>
<path opacity="0.7" fill-rule="evenodd" clip-rule="evenodd" d="M0.453613 24.587C0.872192 25.0375 1.56285 25.0931 2.34097 24.6438L15.6102 16.9777L11.7738 13.0767L0.453613 24.587Z" fill="white"/>
<path opacity="0.8" fill-rule="evenodd" clip-rule="evenodd" d="M11.7864 13.0715L15.6229 9.11042L2.35367 1.32645C1.98902 1.11259 1.64343 1.01147 1.33593 1.01147C0.987654 1.01147 0.688746 1.1414 0.466309 1.38434L11.7864 13.0715Z" fill="white"/>
</svg>
